<svg xmlns="http://www.w3.org/2000/svg" viewBox="0 0 171.37 51.37"><defs><style>.cls-1{fill:#f1742a;}.cls-2{fill:#fff;}.cls-3{fill:#215168;}</style></defs><g id="Layer_2" data-name="Layer 2"><g id="Final_Logo" data-name="Final Logo"><g id="Light"><g id="logo-1"><path class="cls-1" d="M31.94,38a.74.74,0,0,0-.1-1.06.75.75,0,0,0-1.06.1.77.77,0,0,0,.11,1.07A.76.76,0,0,0,31.94,38Z"/><path class="cls-1" d="M33,28.65a.75.75,0,0,0,.15-1.06.77.77,0,0,0-1.06-.13A.75.75,0,0,0,32,28.52.74.74,0,0,0,33,28.65Z"/><path class="cls-1" d="M23.82,22A.74.74,0,0,0,23.7,23a.75.75,0,0,0,1.18-.94A.75.75,0,0,0,23.82,22Z"/><path class="cls-1" d="M28.65,22A.75.75,0,1,0,28.53,23,.76.76,0,0,0,28.65,22Z"/><path class="cls-1" d="M32.05,32.3a.73.73,0,0,0,.14-1,.76.76,0,0,0-1.07-.13A.78.78,0,0,0,31,32.17.75.75,0,0,0,32.05,32.3Z"/><path class="cls-1" d="M50,44.07h-.26a10,10,0,0,1-4.14-.9l-.92.87c-.26.24-.26.42,0,.68l0,0a.71.71,0,0,0,.9.33,1.41,1.41,0,0,1,1.65.84A1.51,1.51,0,0,1,45,47.78a1.48,1.48,0,0,1-.5-1.81.29.29,0,0,0-.08-.41c-.11-.1-.21-.22-.32-.34a1.12,1.12,0,0,1,0-1.7l.73-.7a10.23,10.23,0,0,1-1-.62c-.44.42-.88.84-1.33,1.25a.59.59,0,0,0-.2.53q0,.68.06,1.35a.22.22,0,0,0,.18.23,1.52,1.52,0,0,1,.3,2.74,1.43,1.43,0,0,1-1.64-.07,1.5,1.5,0,0,1,.23-2.6.25.25,0,0,0,.18-.31c0-.44,0-.88-.07-1.32A1.27,1.27,0,0,1,42,42.93l1.27-1.2a8.72,8.72,0,0,1-.82-.79l-1.21,1.15a1.28,1.28,0,0,1-1.13.37l-1.34-.14a.2.2,0,0,0-.25.13,1.48,1.48,0,0,1-1.44.86A1.55,1.55,0,0,1,36,40.73a1.44,1.44,0,0,1,1.44-.48,1.49,1.49,0,0,1,1.17,1c0,.08,0,.17.08.27l1.68.17a.35.35,0,0,0,.26-.1l1.33-1.26a10.12,10.12,0,0,1-.65-.92l-.49.46a1.15,1.15,0,0,1-1.81,0c-.26-.29-.46-.49-.94-.34a1.4,1.4,0,0,1-1.64-.86,1.51,1.51,0,0,1,2.31-1.8,1.48,1.48,0,0,1,.45,1.81.26.26,0,0,0,.06.36c.14.12.26.28.4.41a.35.35,0,0,0,.52,0l.76-.72a8.65,8.65,0,0,1-.55-1.33,10.83,10.83,0,0,1-.48-3,1,1,0,0,1-.13.23,1.51,1.51,0,0,1-2.67-1.18,1.48,1.48,0,0,1,1.4-1.26A.29.29,0,0,0,38.8,32a3.29,3.29,0,0,1,.16-.44,1.11,1.11,0,0,1,1.53-.73c.14-.36.29-.71.46-1.05l-1.11-.4a.64.64,0,0,0-.57.06c-.38.23-.77.46-1.17.67-.12.06-.14.13-.13.26a1.43,1.43,0,0,1-.67,1.5,1.41,1.41,0,0,1-1.63,0,1.51,1.51,0,0,1,.23-2.67,1.39,1.39,0,0,1,1.5.21.28.28,0,0,0,.37,0l1.15-.67a1.24,1.24,0,0,1,1.14-.11c.42.16.84.3,1.26.45a10.33,10.33,0,0,1,.67-1l-1.53-.55a1.26,1.26,0,0,1-.85-.83c-.15-.42-.32-.84-.48-1.26a.2.2,0,0,0-.23-.17,1.47,1.47,0,0,1-1.41-.89,1.54,1.54,0,1,1,2.88-1.08A1.49,1.49,0,0,1,40,24.85c-.06.07-.13.12-.2.2.2.52.4,1.05.61,1.58a.38.38,0,0,0,.21.18l1.92.68a9.44,9.44,0,0,1,.92-.86l-1.22-.43a1.15,1.15,0,0,1-.78-1.64c.13-.36.23-.64-.13-1a1.39,1.39,0,0,1,0-1.85A1.51,1.51,0,0,1,44,23a1.47,1.47,0,0,1-1.4,1.22c-.16,0-.25.05-.29.22s-.13.36-.19.54a.36.36,0,0,0,.21.48l1.86.66a9.81,9.81,0,0,1,5.55-1.72H50V17.13h-.26a16.76,16.76,0,0,0-4.91.72A17.77,17.77,0,0,0,35.33,25c-.29.46-.54.93-.78,1.41-.24-.48-.49-1-.78-1.41a17.77,17.77,0,0,0-9.48-7.17,16.76,16.76,0,0,0-4.91-.72h-.26v7.25h.26a10.07,10.07,0,0,1,5.13,1.4l.85-.68a.35.35,0,0,0,0-.51c-.12-.16-.25-.3-.36-.46s-.19-.15-.35-.1a1.51,1.51,0,0,1-1.49-2.5,1.52,1.52,0,0,1,1.87-.24A1.41,1.41,0,0,1,25.7,23c-.22.45-.05.68.2,1a1.14,1.14,0,0,1-.2,1.8l-.51.41c.31.22.6.47.89.72l1.35-1.08a.34.34,0,0,0,.13-.24c0-.57.05-1.13.07-1.69l-.26-.12a1.49,1.49,0,0,1-.86-1.3,1.44,1.44,0,0,1,.68-1.36,1.54,1.54,0,1,1,1.35,2.74.21.21,0,0,0-.16.23c0,.45,0,.9,0,1.35a1.32,1.32,0,0,1-.53,1.07l-1.18.94a10.18,10.18,0,0,1,.73.87l1.18-.94a1.24,1.24,0,0,1,1.11-.27l1.3.25a.26.26,0,0,0,.34-.14,1.39,1.39,0,0,1,1.35-.68,1.42,1.42,0,0,1,1.25.81A1.44,1.44,0,0,1,33.73,29a1.41,1.41,0,0,1-1.54.52,1.44,1.44,0,0,1-1.13-1.2.2.2,0,0,0-.2-.2l-1.33-.25A.58.58,0,0,0,29,28l-1.2,1a7.07,7.07,0,0,1,.54,1l.51-.41a1.13,1.13,0,0,1,1.69.19,4.68,4.68,0,0,1,.29.37.29.29,0,0,0,.39.14,1.48,1.48,0,0,1,1.73.74,1.5,1.5,0,0,1-.33,1.83,1.52,1.52,0,0,1-1.81.16,1.42,1.42,0,0,1-.6-1.75.71.71,0,0,0-.2-.94l0,0c-.22-.27-.4-.29-.68-.07l-.65.52.12.32a10,10,0,0,1-.43,7.34l.81.66a.35.35,0,0,0,.51-.06,5.46,5.46,0,0,1,.38-.44.25.25,0,0,0,0-.36,1.49,1.49,0,0,1,.33-1.84A1.51,1.51,0,0,1,32.79,38a1.39,1.39,0,0,1-1.57,1c-.49-.12-.68.1-.92.4a1.15,1.15,0,0,1-1.81.17L28,39.07c-.19.33-.39.64-.61,1l1.45,1.2a.42.42,0,0,0,.26.08L30.73,41c0-.11,0-.2.06-.28a1.5,1.5,0,0,1,1.1-1.1A1.55,1.55,0,1,1,31,41.91a.23.23,0,0,0-.27-.12c-.44.08-.89.15-1.33.24a1.32,1.32,0,0,1-1.15-.3c-.44-.38-.89-.75-1.34-1.12a10.2,10.2,0,0,1-.79.82l1.43,1.18a1.28,1.28,0,0,1,.49,1c0,.44,0,.89,0,1.33a.27.27,0,0,0,.21.3,1.41,1.41,0,0,1,1,1.18A1.51,1.51,0,0,1,27,48a1.51,1.51,0,0,1,.12-2.75.23.23,0,0,0,.16-.24q0-.67,0-1.35a.59.59,0,0,0-.24-.52l-1.5-1.24a10.45,10.45,0,0,1-1,.68l.89.74A1.13,1.13,0,0,1,25.59,45c-.1.12-.19.25-.3.36a.3.3,0,0,0-.06.41,1.47,1.47,0,0,1-.37,1.84A1.51,1.51,0,0,1,22.48,46,1.4,1.4,0,0,1,24.07,45a.71.71,0,0,0,.88-.39l0-.05c.22-.27.2-.45-.07-.67L23.84,43a9.85,9.85,0,0,1-4.46,1.07h-.26v7.24h.27a16.89,16.89,0,0,0,4.91-.72A17.83,17.83,0,0,0,32.68,45a15.9,15.9,0,0,0,1.87-3h0a15.9,15.9,0,0,0,1.87,3,17.83,17.83,0,0,0,8.39,5.65,16.89,16.89,0,0,0,4.91.72H50Z"/><path class="cls-1" d="M32.83,41.63a.77.77,0,0,0-.09-1.06.76.76,0,0,0-1,1.15A.77.77,0,0,0,32.83,41.63Z"/><path class="cls-1" d="M27.18,47.24a.76.76,0,0,0,1.07-.08.78.78,0,0,0-.09-1.07.76.76,0,0,0-1,1.15Z"/><path class="cls-1" d="M23.33,46a.75.75,0,0,0,.08,1.07A.74.74,0,0,0,24.47,47a.75.75,0,0,0-.09-1.06A.76.76,0,0,0,23.33,46Z"/><path class="cls-1" d="M36.64,41.24a.75.75,0,1,0,1,1.08.75.75,0,0,0,0-1.07A.74.74,0,0,0,36.64,41.24Z"/><path class="cls-1" d="M41.56,47.52a.77.77,0,0,0,1.07,0,.76.76,0,0,0-1.06-1.08A.78.78,0,0,0,41.56,47.52Z"/><path class="cls-1" d="M46.37,47.09a.75.75,0,0,0,0-1.07.78.78,0,0,0-1.06,0,.77.77,0,0,0,0,1.08A.74.74,0,0,0,46.37,47.09Z"/><path class="cls-1" d="M37.29,37.51a.74.74,0,0,0,0,1.06.75.75,0,1,0,1.09-1A.74.74,0,0,0,37.29,37.51Z"/><path class="cls-1" d="M35.77,30.33a.77.77,0,0,0,.49,1,.75.75,0,1,0-.49-1Z"/><path class="cls-1" d="M38.18,23.56a.75.75,0,0,0,.47,1,.73.73,0,0,0,1-.47.75.75,0,0,0-.47-1A.77.77,0,0,0,38.18,23.56Z"/><path class="cls-1" d="M43.21,23a.75.75,0,0,0-.46-1,.74.74,0,0,0-1,.46.75.75,0,0,0,1.42.51Z"/><path class="cls-1" d="M38.83,33a.75.75,0,1,0,.46,1A.75.75,0,0,0,38.83,33Z"/><path class="cls-1" d="M39.66,31.81l0,.06a.7.7,0,0,0,.13.95,1.27,1.27,0,0,1,.18.29,9.62,9.62,0,0,1,.31-1.6C39.93,31.41,39.77,31.49,39.66,31.81Z"/><path class="cls-2" d="M34.2,0l0,7.23H10.71a3.47,3.47,0,0,0-3.47,3.47v9.53h0A17,17,0,0,1,17.1,17.1h0v7.24h0A9.88,9.88,0,0,0,7.24,34.2H0V7A7,7,0,0,1,7,0ZM10.13,41.17a9.32,9.32,0,0,1-1.46-1.86h0l-7.9-.06h0a17.27,17.27,0,0,0,4.24,7,18.06,18.06,0,0,0,12.09,5h0V44.06h0A10.81,10.81,0,0,1,10.13,41.17Z"/><path class="cls-2" d="M61.89,51.37V48.16h0A17,17,0,0,1,52,51.3h0V44.06h0a9.88,9.88,0,0,0,9.86-9.86h7.24V51.37M59,27.23l5.11-5.12A18,18,0,0,0,52,17.1h0v7.24h0a10.62,10.62,0,0,1,4.06.94A10.31,10.31,0,0,1,59,27.23Z"/><rect class="cls-2" x="54.69" y="34.2" width="7.22" height="7.22"/></g><path class="cls-2" d="M167.39,13.2H52.87c1.6.11,10.17.87,15.82,8.05a20.76,20.76,0,0,1,4.12,9.49h0l0,19.64h94.3a4.33,4.33,0,0,0,3-1.24,4.24,4.24,0,0,0,1.24-3v-29A4,4,0,0,0,167.39,13.2Z"/><path class="cls-3" d="M77.87,45.36V29.76h6.8A8.12,8.12,0,0,1,89.46,31a4,4,0,0,1,1.63,3.45A4.13,4.13,0,0,1,90.36,37a3.89,3.89,0,0,1-2.19,1.39l4.57,7H86.8L83.27,38v-.28a3.53,3.53,0,0,0,2.13-.94,2.92,2.92,0,0,0,.68-2.09,2.77,2.77,0,0,0-.72-2.07,2.93,2.93,0,0,0-2.13-.7H82.9l-.23,0v13.4Z"/><path class="cls-3" d="M101.92,45.94a7.42,7.42,0,0,1-5.71-2.5,8.9,8.9,0,0,1-2.29-6.26,7.75,7.75,0,0,1,2.18-5.75,7.9,7.9,0,0,1,5.82-2.16,7.35,7.35,0,0,1,5.68,2.51A8.94,8.94,0,0,1,109.88,38a7.76,7.76,0,0,1-2.15,5.76A7.91,7.91,0,0,1,101.92,45.94Zm2.48-8.21a13.8,13.8,0,0,0-.64-4.79,2.11,2.11,0,0,0-2-1.59c-.81,0-1.41.5-1.81,1.52a13.21,13.21,0,0,0-.6,4.59,13.57,13.57,0,0,0,.65,4.81c.44,1.07,1.08,1.61,1.94,1.61s1.41-.51,1.81-1.53A13.4,13.4,0,0,0,104.4,37.73Z"/><path class="cls-3" d="M135.49,18.27h2.66l-6.49,24.1a6.12,6.12,0,0,1-1.36,2.68,2.88,2.88,0,0,1-2.14.89,2.67,2.67,0,0,1-2-.87,6.38,6.38,0,0,1-1.32-2.67l-1.51-5.54-1.39,5.51A5.88,5.88,0,0,1,120.57,45a2.89,2.89,0,0,1-2.13.91,2.72,2.72,0,0,1-2-.85,6.52,6.52,0,0,1-1.35-2.69l-3.66-12.64h5.4l3.13,11.75,2.13-8.79-.9-3h5.36l3,11.27Z"/><path class="cls-3" d="M140.54,45.36V32.44h-4.19V29.76H149.8v2.68h-4.18V45.36Z"/><path class="cls-3" d="M152.74,45.36V29.18h5.08v5.94h3.74V29.76h5.08v15.6h-5.08v-7.7h-3.74v7.7Z"/><path class="cls-3" d="M132.64,18.47a1.33,1.33,0,0,1,.19-.14l4.49-2.6a.28.28,0,0,1,.44.12l2.6,4.52a.4.4,0,0,1,0,.32l-.69,2.56a.36.36,0,0,1,0,.11.25.25,0,0,1-.43,0l0-.07L136.74,19a.79.79,0,0,1,0-.09l-.09,0-4.3,2.49a.25.25,0,0,1-.41-.19s0,0,0,0Z"/></g></g></g></svg>